Coordinates
version=1
nRows=19
nColumns=34
inDegrees=yes

Units are S.I. units (second, meters, Newtons, ...)
Angles are in degrees.

endheader
time	pelvis_tilt	pelvis_list	pelvis_rotation	pelvis_tx	pelvis_ty	pelvis_tz	hip_flexion_r	hip_adduction_r	hip_rotation_r	knee_angle_r	ankle_angle_r	subtalar_angle_r	mtp_angle_r	hip_flexion_l	hip_adduction_l	hip_rotation_l	knee_angle_l	socket_flexion	socket_adduction	socket_rotation	socket_tx	socket_ty	socket_tz	pros_ankle_rx	pros_ankle_ry	pros_ankle_rz	pros_ankle_tx	pros_ankle_ty	pros_ankle_tz	foot_flex	lumbar_extension	lumbar_bending	lumbar_rotation
      0.30000000	      0.83560918	     -2.99950657	      4.70657208	     -0.38963716	      1.05212739	      0.33944540	     10.34366136	     -3.26619784	    -14.58157325	    -64.59378928	     -2.16754855	     11.52954478	     14.01701887	     11.87236210	      0.10971486	      6.11068549	    -23.13660177	      0.00000000	      0.00000000	      0.00000000	      0.00000000	      0.00000000	      0.00000000	      0.00000000	      0.00000000	      0.00000000	      0.00000000	      0.00000000	      0.00000000	      6.47860553	    -11.98445043	     -5.19309605	    -25.50478172
      0.30416667	      0.92558460	     -3.06524641	      4.76643320	     -0.38433601	      1.05299398	      0.33924048	     10.84843088	     -3.22107510	    -14.61340615	    -64.57602842	     -1.21605906	     11.51607082	     14.09787613	     11.34858920	      0.00567049	      6.15753546	    -22.93113352	      0.00000000	      0.00000000	      0.00000000	      0.00000000	      0.00000000	      0.00000000	      0.00000000	      0.00000000	      0.00000000	      0.00000000	      0.00000000	      0.00000000	      6.60994351	    -12.02001880	     -5.09459450	    -25.65538988
      0.30833333	      1.03363153	     -3.11971143	      4.81956744	     -0.37912854	      1.05383717	      0.33907150	     11.33766752	     -3.19343438	    -14.64998990	    -64.52486750	     -0.24117033	     11.60563836	     14.14940885	     10.82309179	     -0.09124059	      6.18235748	    -22.75398747	      0.00000000	      0.00000000	      0.00000000	      0.00000000	      0.00000000	      0.00000000	      0.00000000	      0.00000000	      0.00000000	      0.00000000	      0.00000000	      0.00000000	      6.75160728	    -12.11296210	     -5.03184739	    -25.82962741
      0.31250000	      1.07426594	     -3.18854054	      4.87293087	     -0.37381739	      1.05459324	      0.33881996	     11.86546504	     -3.19128663	    -14.75367267	    -64.35066547	      0.27079995	     11.58319668	     14.18762739	     10.34733146	     -0.19022027	      6.25000300	    -22.54165187	      0.00000000	      0.00000000	      0.00000000	      0.00000000	      0.00000000	      0.00000000	      0.00000000	      0.00000000	      0.00000000	      0.00000000	      0.00000000	      0.00000000	      6.89055364	    -12.13733914	     -4.94620123	    -25.90340713
      0.31666667	      1.20305486	     -3.26987942	      4.94266367	     -0.36866795	      1.05545802	      0.33867207	     12.29521831	     -3.10142404	    -14.78913858	    -64.18668509	      1.46052086	     11.66313662	     14.25658936	      9.81825070	     -0.32236550	      6.26272091	    -22.37468074	      0.00000000	      0.00000000	      0.00000000	      0.00000000	      0.00000000	      0.00000000	      0.00000000	      0.00000000	      0.00000000	      0.00000000	      0.00000000	      0.00000000	      6.98893094	    -12.18517612	     -4.79326650	    -26.11451033
      0.32083333	      1.28722992	     -3.35504615	      5.00954512	     -0.36348994	      1.05624112	      0.33845078	     12.75187220	     -3.05507659	    -14.88494405	    -63.92471150	      2.25445207	     11.74552993	     14.27529874	      9.32363499	     -0.44895681	      6.30474459	    -22.18767564	      0.00000000	      0.00000000	      0.00000000	      0.00000000	      0.00000000	      0.00000000	      0.00000000	      0.00000000	      0.00000000	      0.00000000	      0.00000000	      0.00000000	      7.10069841	    -12.22703412	     -4.65673485	    -26.26188458
      0.32500000	      1.34879057	     -3.43111256	      5.06778681	     -0.35827838	      1.05697690	      0.33826172	     13.21761740	     -3.01348487	    -14.98114891	    -63.60502240	      2.94915134	     11.77943051	     14.30034935	      8.85197593	     -0.56570058	      6.34533176	    -22.00465336	      0.00000000	      0.00000000	      0.00000000	      0.00000000	      0.00000000	      0.00000000	      0.00000000	      0.00000000	      0.00000000	      0.00000000	      0.00000000	      0.00000000	      7.19411674	    -12.24341374	     -4.52311645	    -26.38249246
      0.32916667	      1.42479138	     -3.53191148	      5.12817147	     -0.35318894	      1.05771244	      0.33806018	     13.66451617	     -2.93764396	    -15.07949276	    -63.23666088	      3.69188323	     11.85884082	     14.31276507	      8.39122336	     -0.70727754	      6.38004795	    -21.84954419	      0.00000000	      0.00000000	      0.00000000	      0.00000000	      0.00000000	      0.00000000	      0.00000000	      0.00000000	      0.00000000	      0.00000000	      0.00000000	      0.00000000	      7.31097573	    -12.29309121	     -4.37166795	    -26.53166693
      0.33333333	      1.49887953	     -3.63723274	      5.18760856	     -0.34810101	      1.05840967	      0.33786983	     14.09967717	     -2.86604766	    -15.19700251	    -62.81456819	      4.34242746	     11.94366484	     14.30452628	      7.93505887	     -0.85720572	      6.41747181	    -21.69534716	      0.00000000	      0.00000000	      0.00000000	      0.00000000	      0.00000000	      0.00000000	      0.00000000	      0.00000000	      0.00000000	      0.00000000	      0.00000000	      0.00000000	      7.42096221	    -12.34886858	     -4.21511127	    -26.66891938
      0.33750000	      1.55288264	     -3.73066144	      5.24798276	     -0.34300676	      1.05908118	      0.33768998	     14.53164329	     -2.79452436	    -15.30673296	    -62.32387130	      4.93993185	     11.99188172	     14.30372300	      7.49339005	     -0.99276182	      6.45117729	    -21.52880536	      0.00000000	      0.00000000	      0.00000000	      0.00000000	      0.00000000	      0.00000000	      0.00000000	      0.00000000	      0.00000000	      0.00000000	      0.00000000	      0.00000000	      7.51107767	    -12.36614493	     -4.06549352	    -26.78623361
      0.34166667	      1.59910327	     -3.83227756	      5.30531741	     -0.33794477	      1.05970613	      0.33754233	     14.96708021	     -2.71188527	    -15.41609465	    -61.78941074	      5.48683254	     12.04270962	     14.29924492	      7.07157021	     -1.13988473	      6.47960171	    -21.38162083	      0.00000000	      0.00000000	      0.00000000	      0.00000000	      0.00000000	      0.00000000	      0.00000000	      0.00000000	      0.00000000	      0.00000000	      0.00000000	      0.00000000	      7.61273396	    -12.40181011	     -3.92085963	    -26.90144419
      0.34583333	      1.67311869	     -3.94829684	      5.36065581	     -0.33291256	      1.06034171	      0.33735359	     15.35305370	     -2.61022237	    -15.53111851	    -61.20014707	      6.05505606	     12.11993048	     14.27124482	      6.63202758	     -1.30081324	      6.50885364	    -21.24700552	      0.00000000	      0.00000000	      0.00000000	      0.00000000	      0.00000000	      0.00000000	      0.00000000	      0.00000000	      0.00000000	      0.00000000	      0.00000000	      0.00000000	      7.72300305	    -12.45503948	     -3.72798093	    -27.04117475
      0.35000000	      1.74118036	     -4.06439771	      5.42320993	     -0.32792394	      1.06095470	      0.33720065	     15.72636104	     -2.50425697	    -15.65876436	    -60.55101698	      6.54185464	     12.19252985	     14.21761477	      6.20186846	     -1.46530828	      6.54296514	    -21.10900259	      0.00000000	      0.00000000	      0.00000000	      0.00000000	      0.00000000	      0.00000000	      0.00000000	      0.00000000	      0.00000000	      0.00000000	      0.00000000	      0.00000000	      7.83099578	    -12.51657816	     -3.53783199	    -27.17212650
      0.35416667	      1.72825096	     -4.07244912	      5.45951452	     -0.32306024	      1.06130416	      0.33708432	     16.24027369	     -2.54948244	    -15.75142008	    -59.96404351	      6.74040317	     12.18960880	     14.20945370	      5.88242935	     -1.49879816	      6.55142305	    -21.02457058	      0.00000000	      0.00000000	      0.00000000	      0.00000000	      0.00000000	      0.00000000	      0.00000000	      0.00000000	      0.00000000	      0.00000000	      0.00000000	      0.00000000	      7.96369074	    -12.62714879	     -3.51012019	    -27.19746688
      0.35833333	      1.80407004	     -4.26391667	      5.52422125	     -0.31790388	      1.06197894	      0.33698825	     16.52173061	     -2.30345302	    -15.86901582	    -59.14104243	      7.38208190	     12.23780687	     14.17043484	      5.41041817	     -1.75858268	      6.58648931	    -20.82150857	      0.00000000	      0.00000000	      0.00000000	      0.00000000	      0.00000000	      0.00000000	      0.00000000	      0.00000000	      0.00000000	      0.00000000	      0.00000000	      0.00000000	      8.01994259	    -12.55315206	     -3.24868908	    -27.37039251
      0.36250000	      1.96544015	     -4.41995243	      5.63783426	     -0.31303665	      1.06268773	      0.33678134	     16.72175167	     -2.12612388	    -16.04259163	    -58.29092648	      7.72004610	     12.27627848	     13.91793431	      4.90813017	     -1.97447699	      6.66924009	    -20.70102560	      0.00000000	      0.00000000	      0.00000000	      0.00000000	      0.00000000	      0.00000000	      0.00000000	      0.00000000	      0.00000000	      0.00000000	      0.00000000	      0.00000000	      8.13265236	    -12.80335061	     -2.97518504	    -27.55981550
      0.36666667	      1.93742003	     -4.40322999	      5.66952787	     -0.30818477	      1.06292398	      0.33671990	     17.22021215	     -2.18703062	    -16.11996847	    -57.61350989	      7.91932100	     12.26226408	     13.90423098	      4.60017023	     -1.98490619	      6.66274096	    -20.60788398	      0.00000000	      0.00000000	      0.00000000	      0.00000000	      0.00000000	      0.00000000	      0.00000000	      0.00000000	      0.00000000	      0.00000000	      0.00000000	      0.00000000	      8.26459367	    -12.89477975	     -2.96417179	    -27.57790281
      0.37083333	      2.01360593	     -4.60797887	      5.72303356	     -0.30303725	      1.06354109	      0.33667222	     17.44605947	     -1.89738536	    -16.22099661	    -56.62896598	      8.41106966	     12.24091743	     13.79124598	      4.12226971	     -2.26677721	      6.68012345	    -20.39025000	      0.00000000	      0.00000000	      0.00000000	      0.00000000	      0.00000000	      0.00000000	      0.00000000	      0.00000000	      0.00000000	      0.00000000	      0.00000000	      0.00000000	      8.31819060	    -12.83178248	     -2.70096538	    -27.73426779
      0.37500000	      2.07464027	     -4.71054364	      5.79297224	     -0.29805001	      1.06399342	      0.33661326	     17.72137526	     -1.74478723	    -16.31209988	    -55.69794618	      8.70353911	     12.17112962	     13.65411376	      3.69240697	     -2.42718955	      6.70471740	    -20.23136596	      0.00000000	      0.00000000	      0.00000000	      0.00000000	      0.00000000	      0.00000000	      0.00000000	      0.00000000	      0.00000000	      0.00000000	      0.00000000	      0.00000000	      8.41167079	    -12.89067517	     -2.53185931	    -27.83817361
